# xmcd
#
# Track frame offsets:
# 150
# 15905
# 30302
# 51212
# 65479
# 83184
# 100265
# 114799
# 131683
# 146359
# 159203
# 174616
# 185280
# 201394
#
# Disc length: 2882 seconds
#
#
# Revision: 1
# Processed by: cddbd v1.5.1PL2 Copyright (c) Steve Scherf et al.
# Submitted via: FreeRIP 2.945 
#
DISCID=ac0b400e
DTITLE=Country Hits - CD 3 - Country Hits - CD 3
DYEAR=2006
DGENRE=Country
TTITLE0=George Strait - Don't Tell Me You're Not in Love
TTITLE1=Martina Macbride - In My Daughter's Eyes
TTITLE2=Trace Pony - The Woman in Me
TTITLE3=Terri Clark - Poor, Poor Pitiful Me
TTITLE4=Kim Richey - Those Words We Said
TTITLE5=Kenny Chesney - Live Those Songs
TTITLE6=Bellamy Brothers - Let Your Love Flow
TTITLE7=Billy Wilson - Standing Outside the Fire
TTITLE8=Eric Weissberg - Dueling Banjos
TTITLE9=Hank Williams - Jambalaya ( On the Bayou )
TTITLE10=The Doobie Brothers - Steamer Lane Breakdown
TTITLE11=Poco -  Fool's Gold
TTITLE12=Charlie Daniels Band - The Devil Went Down to Georgia
TTITLE13=Happening - Take Me Home, Country Roads
EXTD=
EXTT0=
EXTT1=
EXTT2=
EXTT3=
EXTT4=
EXTT5=
EXTT6=
EXTT7=
EXTT8=
EXTT9=
EXTT10=
EXTT11=
EXTT12=
EXTT13=
PLAYORDER=
